<svg width="24" height="22" viewBox="0 0 24 22" fill="none" xmlns="http://www.w3.org/2000/svg">
<path d="M13.8952 14.8176C14.1274 14.427 14.2516 13.9817 14.255 13.5274C14.255 13.1954 14.1896 12.8667 14.0626 12.56C13.9356 12.2534 13.7494 11.9747 13.5147 11.74C13.2799 11.5053 13.0013 11.3191 12.6946 11.192C12.3879 11.065 12.0592 10.9996 11.7273 10.9996C11.0716 10.9974 10.4412 11.2527 9.97191 11.7105C9.56837 10.9739 8.93112 10.3925 8.16064 10.058C7.39016 9.72351 6.53027 9.65497 5.71654 9.86318C4.9028 10.0714 4.1815 10.5445 3.66636 11.208C3.15122 11.8714 2.87154 12.6874 2.87141 13.5274C2.86711 13.6034 2.86711 13.6796 2.87141 13.7556C2.02792 14.0495 1.31565 14.6324 0.860701 15.401C0.405755 16.1697 0.237488 17.0746 0.385696 17.9554C0.533905 18.8363 0.989026 19.6363 1.67047 20.2137C2.35192 20.7912 3.21573 21.1089 4.10895 21.1106H13.588C14.407 21.1211 15.198 20.8123 15.7932 20.2496C16.3885 19.6868 16.7412 18.9144 16.7765 18.0961C16.8119 17.2777 16.5272 16.4777 15.9828 15.8657C15.4384 15.2537 14.677 14.8777 13.8601 14.8176H13.8952Z" fill="#EEF8FF"/>
<path d="M22.6808 12.676C21.3004 12.9348 19.8729 12.6963 18.6517 12.0028C17.4304 11.3093 16.4943 10.2056 16.0093 8.88752C15.5244 7.56946 15.522 6.12223 16.0026 4.80257C16.4832 3.48292 17.4157 2.37614 18.6346 1.67859C18.6989 1.64206 18.7504 1.58659 18.7821 1.51976C18.8137 1.45292 18.824 1.37795 18.8115 1.30505C18.7991 1.23215 18.7644 1.16487 18.7124 1.11235C18.6603 1.05983 18.5933 1.02464 18.5205 1.01155C18.0626 0.931087 17.5987 0.889978 17.1338 0.888672C15.1241 0.890998 13.1975 1.69097 11.7773 3.11285C10.3571 4.53473 9.55932 6.46223 9.55933 8.4719C9.56057 8.8037 9.58403 9.13503 9.62954 9.46369C9.86445 9.62874 10.0847 9.81374 10.2878 10.0166C10.8657 9.77505 11.4944 9.68006 12.1179 9.74012C12.7414 9.80017 13.3404 10.0134 13.8616 10.3609C14.3828 10.7083 14.81 11.1792 15.1053 11.7317C15.4005 12.2841 15.5547 12.901 15.5539 13.5274C15.5627 13.6677 15.5627 13.8084 15.5539 13.9487C16.4791 14.3755 17.2269 15.1109 17.6692 16.0288C18.7154 15.966 19.7371 15.6861 20.6694 15.2072C21.6017 14.7282 22.4242 14.0605 23.0845 13.2465C23.1506 13.1895 23.193 13.1099 23.2036 13.0233C23.2142 12.9367 23.1921 12.8492 23.1417 12.7779C23.0913 12.7067 23.0161 12.6568 22.9309 12.638C22.8457 12.6191 22.7565 12.6327 22.6808 12.676Z" fill="#EEF8FF"/>
</svg>
