<svg width="26" height="20" viewBox="0 0 26 20" fill="none" xmlns="http://www.w3.org/2000/svg">
<path d="M6.389 12.5939V8.56886C6.38764 7.75685 6.12644 6.96659 5.64361 6.31372C5.16078 5.66085 4.48167 5.17965 3.70567 4.94053V1.56497C3.70669 1.32703 3.80166 1.09913 3.96991 0.930885C4.13816 0.762636 4.36606 0.667662 4.604 0.666638H21.4157C21.5351 0.664577 21.6538 0.686263 21.7648 0.730437C21.8758 0.77461 21.9769 0.840392 22.0623 0.923965C22.1477 1.00754 22.2156 1.10724 22.2622 1.21727C22.3087 1.32731 22.3329 1.4455 22.3334 1.56497V4.94053C21.5574 5.17965 20.8783 5.66085 20.3955 6.31372C19.9127 6.96659 19.6515 7.75685 19.6501 8.56886V12.5939H6.389ZM23.4262 6.55053C22.8912 6.55156 22.3785 6.76453 22.0002 7.14282C21.6219 7.52111 21.4089 8.03388 21.4079 8.56886V13.4805C21.4079 13.7167 21.3141 13.9432 21.147 14.1102C20.98 14.2773 20.7535 14.3711 20.5173 14.3711H5.48289C5.2467 14.3711 5.02018 14.2773 4.85317 14.1102C4.68616 13.9432 4.59233 13.7167 4.59233 13.4805V8.56886C4.59232 8.17034 4.47433 7.78074 4.25323 7.44917C4.03213 7.1176 3.71783 6.85891 3.34993 6.7057C2.98203 6.55249 2.57702 6.51162 2.18593 6.58825C1.79484 6.66487 1.43519 6.85556 1.15231 7.13627C0.869432 7.41699 0.675987 7.77517 0.596362 8.16565C0.516736 8.55614 0.554493 8.96146 0.704873 9.33053C0.855254 9.69959 1.11153 10.0159 1.44139 10.2395C1.77125 10.4631 2.15993 10.5841 2.55844 10.5872C2.67886 10.5825 2.799 10.602 2.91176 10.6445C3.02452 10.687 3.12763 10.7517 3.21499 10.8347C3.30235 10.9177 3.37219 11.0174 3.4204 11.1278C3.46861 11.2383 3.4942 11.3572 3.49567 11.4777V16.4633H4.94622V19.6522H6.389V16.4633H19.6112V19.6522H21.054V16.4633H22.5046V11.4777C22.5049 11.3581 22.5291 11.2396 22.5759 11.1294C22.6226 11.0192 22.6909 10.9195 22.7768 10.8361C22.8629 10.7521 22.9653 10.6867 23.0776 10.6439C23.19 10.6011 23.31 10.5818 23.4301 10.5872C23.9654 10.5872 24.4788 10.3745 24.8573 9.99604C25.2358 9.61753 25.4484 9.10415 25.4484 8.56886C25.4484 8.03356 25.2358 7.52019 24.8573 7.14168C24.4788 6.76317 23.9654 6.55053 23.4301 6.55053H23.4262Z" fill="#EEF8FF"/>
</svg>
