<svg width="20" height="20" viewBox="0 0 20 20" fill="none" xmlns="http://www.w3.org/2000/svg">
<path d="M7.2002 19.3329H12.8002V15.1143L7.2002 18.3522V19.3329Z" fill="#EEF8FF"/>
<path d="M18.8667 13.7329H15.2081L13.7334 14.5729V19.3329H18.8667C18.9282 19.3335 18.9891 19.3219 19.046 19.2986C19.1029 19.2754 19.1546 19.241 19.1981 19.1976C19.2415 19.1541 19.2759 19.1025 19.2991 19.0456C19.3223 18.9887 19.334 18.9277 19.3334 18.8663V14.1996C19.334 14.1381 19.3224 14.0772 19.2991 14.0203C19.2759 13.9634 19.2416 13.9117 19.1981 13.8682C19.1546 13.8248 19.1029 13.7904 19.046 13.7672C18.9891 13.744 18.9282 13.7323 18.8667 13.7329Z" fill="#EEF8FF"/>
<path d="M8.85425 16.3165L13.8455 13.4346L12.1935 10.5879L8.85425 16.3165Z" fill="#EEF8FF"/>
<path d="M14.4986 6.6023L12.8466 9.45829L12.7346 9.64496L14.6573 12.9676L19.0999 10.401C19.153 10.3707 19.1995 10.3301 19.2368 10.2817C19.274 10.2333 19.3013 10.1779 19.3169 10.1188C19.3325 10.0597 19.3363 9.99816 19.3278 9.93764C19.3194 9.87711 19.2991 9.81887 19.2679 9.76629L16.9346 5.72497C16.9043 5.67189 16.8638 5.62538 16.8154 5.58813C16.7669 5.55088 16.7115 5.52364 16.6525 5.50801C16.5934 5.49237 16.5318 5.48865 16.4713 5.49705C16.4108 5.50546 16.3525 5.52582 16.2999 5.55697L14.4986 6.59296V6.6023Z" fill="#EEF8FF"/>
<path d="M12.0349 8.99184L7.2002 6.20117V11.5865L9.70153 13.0332L12.0349 8.99184Z" fill="#EEF8FF"/>
<path d="M15.0709 3.74231C15.1016 3.68925 15.1215 3.63066 15.1295 3.5699C15.1376 3.50913 15.1335 3.44738 15.1177 3.38817C15.1018 3.32896 15.0744 3.27346 15.0371 3.22485C14.9998 3.17623 14.9532 3.13544 14.9001 3.10482L10.8587 0.77161C10.8056 0.74093 10.747 0.721011 10.6863 0.712993C10.6255 0.704974 10.5637 0.709012 10.5045 0.724878C10.4453 0.740743 10.3898 0.768123 10.3412 0.805453C10.2926 0.842783 10.2518 0.889331 10.2212 0.942434L7.65454 5.38801L12.5043 8.18801L15.0709 3.74231Z" fill="#EEF8FF"/>
<path d="M7.2002 12.6689V17.3729L9.23486 13.8449L7.2002 12.6689Z" fill="#EEF8FF"/>
<path d="M6.26674 7.19971H0.666748V11.8664H6.26674V7.19971Z" fill="#EEF8FF"/>
<path d="M5.80008 0.666504H1.13341C1.07212 0.666467 1.01142 0.678513 0.954785 0.701952C0.89815 0.725391 0.846691 0.759764 0.803349 0.803105C0.760008 0.846447 0.725635 0.897906 0.702196 0.954541C0.678757 1.01118 0.666711 1.07188 0.666748 1.13317V6.2665H6.26674V1.13317C6.26678 1.07188 6.25473 1.01118 6.23129 0.954541C6.20785 0.897906 6.17348 0.846447 6.13014 0.803105C6.0868 0.759764 6.03534 0.725391 5.9787 0.701952C5.92207 0.678513 5.86137 0.666467 5.80008 0.666504Z" fill="#EEF8FF"/>
<path d="M0.666748 18.8665C0.666711 18.9278 0.678757 18.9885 0.702196 19.0451C0.725635 19.1017 0.760008 19.1532 0.803349 19.1965C0.846691 19.2399 0.89815 19.2742 0.954785 19.2977C1.01142 19.3211 1.07212 19.3332 1.13341 19.3331H5.80008C5.86137 19.3332 5.92207 19.3211 5.9787 19.2977C6.03534 19.2742 6.0868 19.2399 6.13014 19.1965C6.17348 19.1532 6.20785 19.1017 6.23129 19.0451C6.25473 18.9885 6.26678 18.9278 6.26674 18.8665V12.7998H0.666748V18.8665ZM3.46674 15.5998C3.65134 15.5998 3.83179 15.6545 3.98528 15.7571C4.13876 15.8597 4.25839 16.0054 4.32903 16.176C4.39967 16.3465 4.41816 16.5342 4.38214 16.7152C4.34613 16.8963 4.25724 17.0626 4.12671 17.1931C3.99618 17.3236 3.82988 17.4125 3.64883 17.4485C3.46778 17.4845 3.28012 17.4661 3.10957 17.3954C2.93903 17.3248 2.79326 17.2052 2.69071 17.0517C2.58815 16.8982 2.53341 16.7177 2.53341 16.5331C2.53373 16.2857 2.63217 16.0485 2.80713 15.8735C2.9821 15.6986 3.21931 15.6001 3.46674 15.5998Z" fill="#EEF8FF"/>
</svg>
