<svg width="16" height="23" viewBox="0 0 16 23" fill="none" xmlns="http://www.w3.org/2000/svg">
<path d="M11.6936 0.111328H4.30625C2.054 0.111328 0.222168 1.94316 0.222168 4.19541V6.6879H15.7777V4.19541C15.7777 1.94316 13.9459 0.111328 11.6936 0.111328Z" fill="#EEF8FF"/>
<path d="M0.222168 9.51079C0.222168 9.75103 0.402348 9.93121 0.642588 9.93121H15.3573C15.5975 9.93121 15.7777 9.75103 15.7777 9.51079V7.52881H0.222168V9.51079Z" fill="#EEF8FF"/>
<path d="M10.5526 19.6907H8.42049V10.3813H7.54962V19.6907H5.41749C5.17725 19.6907 4.99707 19.8708 4.99707 20.1111V21.6426C4.99707 21.8829 5.17725 22.063 5.41749 22.063H10.5226C10.7628 22.063 10.943 21.8829 10.943 21.6426V20.1111C10.973 19.9009 10.7929 19.6907 10.5526 19.6907Z" fill="#EEF8FF"/>
<path d="M14.5765 11.2525V10.4116H13.7056V11.2525C13.0149 11.4326 12.4744 12.0933 12.4744 12.8441C12.4744 13.745 13.2251 14.4957 14.126 14.4957C15.0269 14.4957 15.7777 13.745 15.7777 12.8441C15.7777 12.0633 15.2672 11.4326 14.5765 11.2525ZM14.126 13.6248C13.6756 13.6248 13.3452 13.2645 13.3452 12.8441C13.3452 12.3936 13.7056 12.0633 14.126 12.0633C14.5765 12.0633 14.9068 12.4236 14.9068 12.8441C14.9368 13.2645 14.5765 13.6248 14.126 13.6248Z" fill="#EEF8FF"/>
</svg>
