<svg width="22" height="22" viewBox="0 0 22 22" fill="none" xmlns="http://www.w3.org/2000/svg">
<path d="M20.9905 11.394C21.0463 11.3109 21.0839 11.217 21.1011 11.1184C21.1183 11.0198 21.1146 10.9187 21.0902 10.8216C21.0658 10.7245 21.0214 10.6336 20.9596 10.5548C20.8979 10.476 20.8203 10.411 20.7319 10.3641L19.2968 9.59131L11.3383 13.8049C11.2342 13.8601 11.1182 13.8889 11.0003 13.8889C10.8825 13.8889 10.7664 13.8601 10.6623 13.8049L2.70383 9.59131L1.26872 10.3641C1.18031 10.411 1.10273 10.476 1.04101 10.5548C0.979295 10.6336 0.93481 10.7245 0.910437 10.8216C0.886064 10.9187 0.882346 11.0198 0.899524 11.1184C0.916702 11.217 0.954393 11.3109 1.01016 11.394L11.0003 16.6831L20.9905 11.394Z" fill="#EEF8FF"/>
<path d="M20.7318 14.6976L19.2967 13.9248L11.3382 18.1384C11.2341 18.1936 11.118 18.2224 11.0002 18.2224C10.8824 18.2224 10.7663 18.1936 10.6622 18.1384L2.70372 13.9248L1.2686 14.6976C1.15395 14.7595 1.05816 14.8512 0.991407 14.9631C0.92465 15.075 0.889404 15.2029 0.889404 15.3332C0.889404 15.4635 0.92465 15.5914 0.991407 15.7032C1.05816 15.8151 1.15395 15.9069 1.2686 15.9688L10.6579 21.0245C10.7631 21.0812 10.8807 21.1108 11.0002 21.1108C11.1197 21.1108 11.2373 21.0812 11.3426 21.0245L20.7318 15.9688C20.8465 15.9069 20.9422 15.8151 21.009 15.7032C21.0758 15.5914 21.111 15.4635 21.111 15.3332C21.111 15.2029 21.0758 15.075 21.009 14.9631C20.9422 14.8512 20.8465 14.7595 20.7318 14.6976Z" fill="#EEF8FF"/>
<path d="M11.0003 12.3497L20.9905 7.06064C21.0463 6.97752 21.0839 6.88361 21.1011 6.785C21.1183 6.68639 21.1146 6.58527 21.0902 6.48819C21.0658 6.3911 21.0214 6.30022 20.9596 6.22141C20.8979 6.14261 20.8203 6.07764 20.7319 6.03071L11.3427 0.974963C11.2374 0.918321 11.1198 0.888672 11.0003 0.888672C10.8808 0.888672 10.7632 0.918321 10.658 0.974963L1.26872 6.03071C1.18031 6.07764 1.10273 6.14261 1.04101 6.22141C0.979295 6.30022 0.93481 6.3911 0.910437 6.48819C0.886064 6.58527 0.882346 6.68639 0.899524 6.785C0.916702 6.88361 0.954393 6.97752 1.01016 7.06064L11.0003 12.3497Z" fill="#EEF8FF"/>
</svg>
